<?xml version="1.0" standalone="no"?>
<!DOCTYPE svg PUBLIC "-//W3C//DTD SVG 20010904//EN"
 "http://www.w3.org/TR/2001/REC-SVG-20010904/DTD/svg10.dtd">
<svg version="1.0" xmlns="http://www.w3.org/2000/svg"
 width="272.000000pt" height="272.000000pt" viewBox="0 0 272.000000 272.000000"
 preserveAspectRatio="xMidYMid meet">
<metadata>
Created by potrace 1.11, written by Peter Selinger 2001-2013
</metadata>
<g transform="translate(0.000000,272.000000) scale(0.100000,-0.100000)"
fill="#000000" stroke="none">
<path d="M1750 2362 c-19 -10 -51 -43 -71 -72 -51 -75 -74 -182 -83 -379 -5
-109 4 -98 -88 -98 -46 0 -102 -5 -125 -12 -38 -12 -45 -11 -70 7 -75 52 -221
70 -314 37 -62 -22 -123 -60 -152 -95 -14 -16 -32 -30 -40 -30 -33 0 -108 -34
-147 -67 -43 -37 -88 -100 -93 -130 -1 -10 -5 -22 -8 -28 -11 -20 -10 -98 1
-146 7 -27 30 -76 51 -109 35 -54 38 -65 31 -98 -25 -116 29 -236 124 -277 25
-10 33 -21 38 -51 11 -62 43 -159 94 -285 l10 -26 -164 0 c-190 0 -200 -4
-195 -75 3 -40 16 -41 810 -41 729 0 765 1 778 19 18 24 17 59 -3 78 -17 18
-19 18 -223 18 l-143 0 5 71 c8 109 63 317 92 347 13 14 35 49 48 78 14 30 36
59 49 66 85 45 122 83 155 161 33 79 33 176 0 249 -18 38 -23 65 -20 97 2 24
5 61 7 81 1 21 4 39 7 40 2 2 22 12 44 23 71 36 140 107 151 157 3 13 8 32 11
44 13 55 -42 148 -112 191 -41 25 -131 65 -171 75 -37 10 -42 15 -53 57 -32
118 -135 173 -231 123z m100 -114 c14 -15 20 -35 20 -68 0 -25 6 -54 13 -63 7
-10 44 -26 82 -36 155 -41 235 -89 235 -142 0 -17 -9 -44 -20 -59 -22 -31 -91
-75 -134 -86 -40 -10 -53 -39 -60 -139 -4 -49 -9 -104 -12 -121 -3 -22 4 -47
27 -90 27 -51 30 -65 24 -108 -12 -93 -61 -155 -134 -169 -46 -9 -59 -22 -67
-66 -13 -70 -40 -107 -98 -136 -85 -41 -215 -32 -291 21 -29 21 -60 17 -94
-12 -39 -33 -120 -64 -166 -64 -45 0 -120 29 -178 68 -54 38 -58 38 -115 11
-54 -26 -90 -18 -111 25 -13 29 -18 94 -8 131 3 11 8 32 12 46 5 21 -1 35 -36
75 -23 27 -48 64 -56 83 -31 74 -6 176 54 219 31 22 89 40 115 36 10 -1 39 20
69 51 29 30 70 61 93 70 91 37 202 19 274 -43 38 -33 62 -34 112 -3 49 30 119
28 173 -4 58 -33 85 -20 110 55 21 62 24 85 32 220 9 167 33 259 77 300 27 25
32 25 58 -2z m-891 -1387 c15 -11 47 -27 72 -37 58 -22 58 -23 65 -75 6 -44
46 -200 58 -230 6 -12 -3 -15 -46 -17 -30 0 -58 2 -64 6 -31 21 -144 338 -129
363 8 13 13 12 44 -10z m471 -6 c25 -13 28 -19 20 -38 -17 -40 -48 -218 -49
-282 -1 -30 -2 -31 -57 -33 -55 -2 -55 -2 -71 36 -17 42 -63 216 -63 241 0 10
9 17 22 18 32 3 109 33 138 54 30 22 25 22 60 4z m266 -43 c-3 -9 -8 -35 -13
-57 -4 -22 -8 -42 -8 -45 -1 -3 -5 -27 -9 -55 -4 -27 -9 -59 -11 -70 -2 -11
-4 -34 -4 -51 l-1 -31 -66 0 -66 0 5 66 c6 73 21 153 38 212 11 34 16 38 48
41 94 8 92 8 87 -10z"/>
<path d="M1873 1998 c-6 -7 -13 -23 -16 -36 -11 -47 59 -87 96 -54 20 17 23
72 5 90 -16 16 -73 15 -85 0z"/>
</g>
</svg>
